<svg width="45" height="45" viewBox="0 0 45 45" fill="none" xmlns="http://www.w3.org/2000/svg">
<g clip-path="url(#clip0_13_182)">
<path d="M22.65 0.688965C10.4672 0.688965 0.590622 10.5983 0.590622 22.828C0.590622 33.8108 8.57343 42.9327 19.0219 44.6577V29.6483H13.4062V23.0765H19.0219V18.3046C19.0219 13.1296 23.2031 9.61865 28.3594 9.61865C30.6516 9.61865 32.0859 9.96553 32.0859 9.96553V15.4874H28.3594C26.8125 15.4874 25.5516 16.7483 25.5516 18.3046V23.0765H31.5703L30.7312 29.6483H25.5516V44.7515C36.3469 43.3171 44.6719 34.0405 44.6719 22.828C44.6906 10.5983 34.8187 0.688965 22.65 0.688965Z" fill="#B91F33"/>
</g>
<defs>
<clipPath id="clip0_13_182">
<rect width="45" height="45" fill="white"/>
</clipPath>
</defs>
</svg>
