<svg width="45" height="45" viewBox="0 0 45 45" fill="none" xmlns="http://www.w3.org/2000/svg">
<g clip-path="url(#clip0_13_195)">
<path d="M22.5 0C10.0734 0 0 10.0734 0 22.5C0 34.9266 10.0734 45 22.5 45C34.9266 45 45 34.9266 45 22.5C44.9813 10.0734 34.9078 0 22.5 0ZM35.6297 17.4328C35.6297 17.4328 36.0188 26.0438 29.475 31.3828C19.6734 39.3516 9.09844 32.8828 9.09844 32.8828C9.09844 32.8828 11.6672 32.9203 13.95 32.3203C16.2094 31.7156 17.8453 30.2344 17.8453 30.2344C17.8453 30.2344 15.3703 29.7281 14.0859 28.7906C12.7969 27.8578 12.2906 26.0672 12.2906 26.0672C12.2906 26.0672 13.1484 26.1422 13.6734 26.1234C14.2219 26.1047 14.8641 25.8516 14.8641 25.8516C14.8641 25.8516 13.0922 25.6359 11.4328 23.7844C10.1297 22.3266 10.2281 19.8891 10.2281 19.8891C10.2281 19.8891 11.0063 20.3578 11.4141 20.4563C11.8266 20.5734 12.6234 20.5734 12.6234 20.5734C12.6234 20.5734 11.0672 19.6547 10.3828 17.2594C9.70313 14.8828 11.0063 12.4688 11.0063 12.4688C11.0063 12.4688 13.3266 15.2719 16.7531 17.0672C20.1797 18.8578 23.4141 18.7969 23.4141 18.7969C23.4141 18.7969 22.95 17.3766 23.7656 15.2719C24.5859 13.1672 26.4328 11.6484 29.2594 11.4328C32.0859 11.2031 33.8953 13.3453 33.8953 13.3453C33.8953 13.3453 34.7719 13.1906 35.7656 12.8203C36.7594 12.4688 37.7531 12 37.7531 12C37.7531 12 37.4016 13.0734 36.7219 13.9078C36.0375 14.7469 35.2781 15.2531 35.2781 15.2531C35.2781 15.2531 36.1734 15.1969 37.0734 14.9438C37.9688 14.6906 38.4563 14.4328 38.4563 14.4328C37.4203 16.1484 35.6297 17.4328 35.6297 17.4328Z" fill="#B91F33"/>
</g>
<defs>
<clipPath id="clip0_13_195">
<rect width="45" height="45" fill="white"/>
</clipPath>
</defs>
</svg>
