<svg width="45" height="45" viewBox="0 0 45 45" fill="none" xmlns="http://www.w3.org/2000/svg">
<g clip-path="url(#clip0_13_189)">
<path d="M22.5 0C10.0734 0 0 10.0734 0 22.5C0 34.9266 10.0734 45 22.5 45C34.9266 45 45 34.9266 45 22.5C44.9813 10.0734 34.9078 0 22.5 0ZM35.4563 28.7906C35.2031 30.45 33.7594 31.6547 32.0859 31.6547H12.8953C11.2219 31.6547 9.77813 30.45 9.525 28.7906C9.29063 27.2531 9.05625 25.1109 9.0375 22.4813C9.05625 19.8516 9.27187 17.7281 9.525 16.1672C9.77813 14.5125 11.2219 13.3031 12.8953 13.3031H32.0859C33.7594 13.3031 35.2031 14.5125 35.4563 16.1672C35.6906 17.7094 35.9203 19.8516 35.9438 22.4813C35.9203 25.1109 35.6906 27.2531 35.4563 28.7906Z" fill="#B91F33"/>
<path d="M19.6547 18.8391V26.1422L26.4563 22.5L19.6547 18.8391Z" fill="#B91F33"/>
</g>
<defs>
<clipPath id="clip0_13_189">
<rect width="45" height="45" fill="white"/>
</clipPath>
</defs>
</svg>
