<svg width="149" height="100" viewBox="0 0 149 100" fill="none" xmlns="http://www.w3.org/2000/svg">
<g clip-path="url(#clip0_8_144)">
<path d="M14 28C14 24.134 10.866 21 7 21C3.13401 21 0 24.134 0 28V50C0 53.866 3.13401 57 7 57C10.866 57 14 53.866 14 50V28Z" fill="#B91F33"/>
<path d="M149 28C149 24.134 145.866 21 142 21C138.134 21 135 24.134 135 28V50C135 53.866 138.134 57 142 57C145.866 57 149 53.866 149 50V28Z" fill="#B91F33"/>
<path d="M81 28C81 24.134 77.866 21 74 21C70.134 21 67 24.134 67 28V50C67 53.866 70.134 57 74 57C77.866 57 81 53.866 81 50V28Z" fill="#B91F33"/>
<path d="M36 19C36 15.134 32.866 12 29 12C25.134 12 22 15.134 22 19V59C22 62.866 25.134 66 29 66C32.866 66 36 62.866 36 59V19Z" fill="#B91F33"/>
<path d="M126 19C126 15.134 122.866 12 119 12C115.134 12 112 15.134 112 19V59C112 62.866 115.134 66 119 66C122.866 66 126 62.866 126 59V19Z" fill="#B91F33"/>
<path d="M59 7C59 3.13401 55.866 0 52 0C48.134 0 45 3.13401 45 7V71C45 74.866 48.134 78 52 78C55.866 78 59 74.866 59 71V7Z" fill="#B91F33"/>
<path d="M104 7C104 3.13401 100.866 0 97 0C93.134 0 90 3.13401 90 7V71C90 74.866 93.134 78 97 78C100.866 78 104 74.866 104 71V7Z" fill="#B91F33"/>
<path d="M24.1954 82H28.9256V100H24.1954V92.8785H20.7302V100H16V82H20.7302V89.3738H24.1954V82Z" fill="white"/>
<path d="M40.1132 100L39.5632 97.3084H35.328L34.7505 100H30.0203L34.558 82H40.4157L44.9534 100H40.1132ZM36.0705 93.8318H38.8207L37.4731 87.3551L36.0705 93.8318Z" fill="white"/>
<path d="M50.8654 93.6075V100H46.0526V82H54.2205C56.9156 82 58.2632 83.1589 58.2632 85.4766V90.1308C58.2632 91.9065 57.4748 93 55.8981 93.4112L59.1432 100H53.973L51.1679 93.6075H50.8654ZM52.7629 85.5047H50.8654V90.271H52.7629C53.2213 90.271 53.4505 90.0654 53.4505 89.6542V86.1215C53.4505 85.7103 53.2213 85.5047 52.7629 85.5047Z" fill="white"/>
<path d="M60.4543 82H68.5671C71.2623 82 72.6098 83.1589 72.6098 85.4766V96.5234C72.6098 98.8411 71.2623 100 68.5671 100H60.4543V82ZM67.7971 96.1589V85.8411C67.7971 85.4299 67.5679 85.2243 67.1096 85.2243H65.267V96.7757H67.1096C67.5679 96.7757 67.7971 96.5701 67.7971 96.1589Z" fill="white"/>
<path d="M92.0667 88.729H87.254V85.8411C87.254 85.4299 87.0248 85.2243 86.5665 85.2243H85.6039C85.1456 85.2243 84.9164 85.4299 84.9164 85.8411V96.1589C84.9164 96.5701 85.1456 96.7757 85.6039 96.7757H86.5665C87.0248 96.7757 87.254 96.5701 87.254 96.1589V93.3832H92.0667V96.5234C92.0667 98.8411 90.7192 100 88.0241 100H84.1464C81.4513 100 80.1037 98.8411 80.1037 96.5234V85.4766C80.1037 83.1589 81.4513 82 84.1464 82H88.0241C90.7192 82 92.0667 83.1589 92.0667 85.4766V88.729Z" fill="white"/>
<path d="M97.8177 82H101.888C104.583 82 105.931 83.1589 105.931 85.4766V96.5234C105.931 98.8411 104.583 100 101.888 100H97.8177C95.1226 100 93.775 98.8411 93.775 96.5234V85.4766C93.775 83.1589 95.1226 82 97.8177 82ZM101.118 95.8785V86.1215C101.118 85.7103 100.889 85.5047 100.43 85.5047H99.2753C98.8169 85.5047 98.5878 85.7103 98.5878 86.1215V95.8785C98.5878 96.2897 98.8169 96.4953 99.2753 96.4953H100.43C100.889 96.4953 101.118 96.2897 101.118 95.8785Z" fill="white"/>
<path d="M112.851 93.6075V100H108.038V82H116.206C118.901 82 120.248 83.1589 120.248 85.4766V90.1308C120.248 91.9065 119.46 93 117.883 93.4112L121.128 100H115.958L113.153 93.6075H112.851ZM114.748 85.5047H112.851V90.271H114.748C115.207 90.271 115.436 90.0654 115.436 89.6542V86.1215C115.436 85.7103 115.207 85.5047 114.748 85.5047Z" fill="white"/>
<path d="M126.977 96.4953H133V100H122.164V82H132.752V85.5047H126.977V89.1776H131.955V92.6822H126.977V96.4953Z" fill="white"/>
</g>
<defs>
<clipPath id="clip0_8_144">
<rect width="149" height="100" fill="white"/>
</clipPath>
</defs>
</svg>
